<?xml version="1.0" encoding="UTF-8"?>
<svg xmlns="http://www.w3.org/2000/svg" xmlns:xlink="http://www.w3.org/1999/xlink" viewBox="0 0 128 128" width="128px" height="128px">
<g id="surface256050514">
<path style=" stroke:none;fill-rule:nonzero;fill:rgb(100%,100%,100%);fill-opacity:1;" d="M 89 1 C 76.808594 1 65.359375 3.648438 58.367188 8.078125 C 56.96875 8.96875 56.558594 10.820312 57.4375 12.21875 C 58.328125 13.621094 60.179688 14.03125 61.578125 13.148438 C 67.648438 9.300781 77.898438 7 89 7 C 107.308594 7 121 13.339844 121 19 C 121 22.660156 114.597656 27.550781 102.359375 29.820312 C 100.730469 30.121094 99.660156 31.691406 99.960938 33.320312 C 100.230469 34.761719 101.488281 35.769531 102.910156 35.769531 C 103.089844 35.769531 103.28125 35.75 103.460938 35.71875 C 117.980469 33.019531 127 26.609375 127 19 C 127 8.738281 110.660156 1 89 1 Z M 54 21 C 24.78125 21 1 44.78125 1 74 C 1 103.21875 24.78125 127 54 127 C 83.21875 127 107 103.21875 107 74 C 107 44.78125 83.21875 21 54 21 Z M 54 27 C 79.921875 27 101 48.078125 101 74 C 101 99.921875 79.921875 121 54 121 C 28.078125 121 7 99.921875 7 74 C 7 48.078125 28.078125 27 54 27 Z M 124 36 C 122.339844 36 121 37.339844 121 39 C 121 41.648438 117.851562 44.589844 112.570312 46.847656 C 111.050781 47.5 110.339844 49.269531 110.988281 50.789062 C 111.480469 51.929688 112.589844 52.609375 113.75 52.609375 C 114.140625 52.609375 114.550781 52.527344 114.929688 52.371094 C 122.710938 49.027344 127 44.28125 127 39 C 127 37.339844 125.660156 36 124 36 Z M 43 41 C 41.339844 41 40 42.339844 40 44 L 40 51 L 37 51 C 35.339844 51 34 52.339844 34 54 C 34 55.660156 35.339844 57 37 57 L 40 57 L 40 91 L 37 91 C 35.339844 91 34 92.339844 34 94 C 34 95.660156 35.339844 97 37 97 L 40 97 L 40 104 C 40 105.660156 41.339844 107 43 107 C 44.660156 107 46 105.660156 46 104 L 46 97 L 54 97 L 54 104 C 54 105.660156 55.339844 107 57 107 C 58.660156 107 60 105.660156 60 104 L 60 97 L 65 97 C 72.171875 97 78 91.171875 78 84 C 78 78.371094 74.402344 73.589844 69.390625 71.777344 C 71.019531 69.609375 72 66.921875 72 64 C 72 57.171875 66.699219 51.5625 60 51.050781 L 60 44 C 60 42.339844 58.660156 41 57 41 C 55.339844 41 54 42.339844 54 44 L 54 51 L 46 51 L 46 44 C 46 42.339844 44.660156 41 43 41 Z M 124 56 C 122.339844 56 121 57.339844 121 59 C 121 61.558594 118.128906 63.769531 116.417969 64.847656 C 115.019531 65.738281 114.609375 67.589844 115.488281 68.988281 C 116.058594 69.890625 117.03125 70.378906 118.03125 70.378906 C 118.578125 70.378906 119.140625 70.230469 119.632812 69.910156 C 125.722656 66.058594 127 61.851562 127 59 C 127 57.339844 125.660156 56 124 56 Z M 46 57 L 59 57 C 62.859375 57 66 60.140625 66 64 C 66 67.859375 62.859375 71 59 71 L 46 71 Z M 46 77 L 65 77 C 68.859375 77 72 80.140625 72 84 C 72 87.859375 68.859375 91 65 91 L 46 91 Z M 46 77 "/>
</g>
</svg>
