<svg width="184" height="180" viewBox="0 0 184 180" fill="none" xmlns="http://www.w3.org/2000/svg">
<g clip-path="url(#clip0_1606_3226)">
<path d="M22.8024 84.0669C22.6741 86.2558 21.9045 87.987 20.4935 89.2607C19.0821 90.541 17.3314 91.1201 15.2414 90.9979C13.8371 90.9158 12.6092 90.5331 11.5576 89.8497C10.5061 89.1664 9.71571 88.2601 9.18647 87.131C8.66344 86.0088 8.44713 84.6764 8.53754 83.1336C8.65693 81.0964 9.3151 79.4611 10.512 78.2278C11.9556 76.7377 13.808 76.0588 16.0695 76.191C18.1726 76.314 19.8532 77.1002 21.1113 78.5498C22.3689 80.006 22.9326 81.845 22.8024 84.0669ZM20.6046 83.9781C20.666 82.9298 20.3226 82.0728 19.5744 81.4072C18.631 80.5714 17.3781 80.1078 15.8155 80.0165C14.2529 79.9251 12.9955 80.2155 12.0432 80.8875C11.2285 81.4684 10.791 82.273 10.7307 83.3015C10.6701 84.3366 11.0106 85.1868 11.7522 85.852C12.6389 86.6382 13.8603 87.0768 15.4163 87.1678C16.5107 87.2317 17.4397 87.1273 18.2033 86.8544C18.9664 86.5881 19.5483 86.1987 19.9488 85.6862C20.3493 85.1738 20.5679 84.6044 20.6046 83.9781Z" fill="#FFFEFA"/>
<path d="M18.3537 91.8898L19.0578 96.4631L12.6854 97.3169C12.2338 97.3774 11.9362 97.4439 11.7927 97.5164C11.65 97.5955 11.5393 97.7136 11.4604 97.8708C11.389 98.0336 11.3682 98.2263 11.3981 98.4489C11.4421 98.7761 11.5672 99.1125 11.7735 99.458C11.8583 99.5933 12.1421 99.9451 12.6249 100.513L16.4542 100C16.7881 99.9556 17.0137 99.8987 17.131 99.8297C17.2483 99.7607 17.3266 99.6735 17.3658 99.5683C17.4115 99.4623 17.4155 99.2685 17.3777 98.987L17.3012 98.4176L19.1962 98.1637L19.9017 102.747L12.8715 103.689C12.5049 103.738 12.2752 103.789 12.1822 103.841C12.0968 103.899 12.0373 103.977 12.0037 104.075C11.9777 104.178 11.9888 104.41 12.0371 104.77L12.107 105.29L10.212 105.544L9.51532 101.25L10.6739 101.095C10.1711 100.576 9.77256 100.039 9.47831 99.4857C9.19061 98.9312 9.0072 98.3594 8.92809 97.7703C8.8648 97.299 8.88489 96.8532 8.98837 96.4329C9.08618 96.02 9.24471 95.6623 9.46396 95.3597C9.68975 95.0562 9.96732 94.8158 10.2967 94.6384C10.626 94.461 11.0623 94.3359 11.6056 94.2631L15.651 93.7211C16.0241 93.6712 16.2566 93.6167 16.3487 93.5577C16.4416 93.5053 16.5044 93.4269 16.537 93.3226C16.5762 93.2174 16.5742 93.0044 16.5312 92.6837L16.4586 92.1437L18.3537 91.8898Z" fill="#FFFEFA"/>
<path d="M21.8054 109.124L20.4263 109.526C21.107 109.878 21.5961 110.21 21.8937 110.522C22.1995 110.839 22.4024 111.169 22.5023 111.511C22.5931 111.822 22.6007 112.119 22.5252 112.402C22.4579 112.69 22.3114 112.942 22.0858 113.159C21.8621 113.383 21.5981 113.539 21.2937 113.627C20.8942 113.744 20.4939 113.716 20.0928 113.544C19.6935 113.378 19.4245 113.058 19.2856 112.582C19.2486 112.455 19.2248 112.339 19.2142 112.232C19.2055 112.131 19.2087 111.906 19.224 111.558C19.2265 111.378 19.2121 111.235 19.1806 111.127C19.1325 110.962 18.9483 110.72 18.628 110.401L14.9091 111.484C14.5921 111.576 14.3925 111.659 14.3104 111.731C14.2301 111.809 14.1834 111.909 14.1705 112.029C14.1576 112.15 14.2039 112.391 14.3094 112.752L14.4316 113.171L12.596 113.706L10.8827 107.838L12.7183 107.304L12.86 107.789C12.9618 108.137 13.0437 108.347 13.1058 108.419C13.1698 108.496 13.2558 108.543 13.3639 108.56C13.472 108.577 13.6909 108.537 14.0206 108.441L18.3862 107.169L17.978 105.771L19.8041 105.239C20.1693 106.254 20.7493 107.251 21.5444 108.23L21.8054 109.124Z" fill="#FFFEFA"/>
<path d="M31.3973 120.792L26.7555 123.431C27.3254 123.738 27.7725 124.042 28.0966 124.344C28.4297 124.648 28.7025 124.987 28.9151 125.36C29.471 126.336 29.5745 127.344 29.2255 128.386C28.8206 129.596 27.9293 130.593 26.5514 131.376C25.1562 132.169 23.8213 132.435 22.5465 132.172C21.2807 131.912 20.347 131.253 19.7453 130.198C19.5 129.767 19.3363 129.313 19.2542 128.836C19.1721 128.358 19.175 127.81 19.2627 127.19L18.2744 127.137L17.1953 125.243L27.4434 119.416L26.7272 118.16L28.3979 117.21C29.1225 118.295 29.962 119.207 30.9166 119.949L31.3973 120.792ZM24.8867 124.494L22.2687 125.982C21.7405 126.283 21.3989 126.53 21.2437 126.725C21.0976 126.922 21.0173 127.161 21.003 127.443C20.9919 127.73 21.0665 128.014 21.2268 128.296C21.4982 128.772 21.9092 129.04 22.4598 129.099C23.1506 129.177 23.9265 128.971 24.7877 128.482C25.5972 128.021 26.1364 127.514 26.4051 126.958C26.6205 126.509 26.6137 126.084 26.3848 125.682C26.2573 125.458 26.0682 125.247 25.8177 125.047C25.5705 124.853 25.2602 124.669 24.8867 124.494Z" fill="#FFFEFA"/>
<path d="M31.0438 129.883L34.0291 133.388L29.0763 137.435C28.7252 137.722 28.5078 137.934 28.4241 138.07C28.3446 138.211 28.3124 138.369 28.3277 138.543C28.3523 138.718 28.4353 138.892 28.5769 139.065C28.7851 139.319 29.0668 139.539 29.422 139.724C29.5645 139.794 29.9887 139.944 30.6946 140.173L33.6709 137.741C33.9304 137.529 34.0918 137.363 34.1551 137.243C34.2185 137.123 34.2393 137.009 34.2176 136.899C34.2009 136.786 34.103 136.62 33.924 136.401L33.5618 135.959L35.0347 134.755L38.0262 138.267L32.562 142.733C32.2771 142.966 32.109 143.128 32.0576 143.221C32.0156 143.315 32.0059 143.412 32.0285 143.512C32.0605 143.614 32.1909 143.804 32.4199 144.083L32.7509 144.488L31.2781 145.691L28.4447 142.419L29.3452 141.683C28.6481 141.506 28.0304 141.26 27.4919 140.945C26.9585 140.625 26.5045 140.237 26.1298 139.78C25.83 139.414 25.6142 139.026 25.4823 138.616C25.3495 138.215 25.2969 137.83 25.3247 137.459C25.3575 137.084 25.467 136.736 25.6534 136.414C25.8398 136.092 26.1441 135.758 26.5664 135.413L29.7106 132.844C30.0006 132.607 30.1692 132.439 30.2163 132.341C30.2677 132.248 30.2799 132.149 30.2531 132.044C30.2313 131.935 30.1185 131.755 29.9144 131.506L29.5709 131.087L31.0438 129.883Z" fill="#FFFEFA"/>
<path d="M44.8675 144.275L45.8413 145.143L44.5971 147.745L42.6873 147.056C42.8049 146.386 42.769 145.749 42.5796 145.144C42.3996 144.538 42.1113 144.058 41.7149 143.705C41.4522 143.47 41.2166 143.34 41.0081 143.314C40.7995 143.288 40.6399 143.337 40.5292 143.461C40.4362 143.565 40.3945 143.701 40.404 143.87C40.4184 144.043 40.5251 144.308 40.724 144.663L42.1174 147.215C42.364 147.666 42.567 148.137 42.7264 148.626C42.8857 149.116 42.921 149.574 42.8322 150.002C42.7527 150.43 42.5447 150.832 42.2082 151.208C41.606 151.882 40.8546 152.204 39.954 152.174C38.8978 152.14 37.9187 151.72 37.0167 150.915C36.2436 150.226 35.7445 149.429 35.5195 148.525L34.946 148.747L33.9573 147.865L35.2215 144.613L37.1578 145.273C37.0181 146.137 37.0643 146.957 37.2964 147.733C37.5328 148.505 37.8666 149.083 38.2978 149.468C38.5654 149.707 38.8462 149.846 39.1403 149.886C39.3676 149.911 39.541 149.856 39.6606 149.723C39.7624 149.609 39.8053 149.451 39.7893 149.25C39.7732 149.049 39.6369 148.718 39.3804 148.258L38.2728 146.268C37.6647 145.165 37.3567 144.293 37.349 143.654C37.3506 143.015 37.5684 142.453 38.0023 141.968C38.5602 141.344 39.2798 141.042 40.1611 141.063C41.165 141.086 42.0856 141.472 42.9232 142.219C43.6665 142.882 44.1528 143.619 44.382 144.429L44.8675 144.275Z" fill="#FFFEFA"/>
<path d="M52.5515 144.517C52.9632 144.803 53.2109 145.192 53.2946 145.684C53.3875 146.174 53.2908 146.624 53.0045 147.036C52.7144 147.453 52.3213 147.706 51.8253 147.795C51.3385 147.882 50.8893 147.783 50.4775 147.497C50.0658 147.212 49.8135 146.824 49.7206 146.334C49.6369 145.842 49.7382 145.39 50.0246 144.979C50.3071 144.573 50.6991 144.327 51.2005 144.242C51.7057 144.151 52.156 144.243 52.5515 144.517ZM51.3476 149.053L47.1714 155.054C46.9717 155.341 46.8655 155.528 46.8528 155.615C46.8401 155.703 46.8612 155.794 46.9161 155.888C46.9802 155.981 47.1585 156.129 47.451 156.332L47.8899 156.637L46.7992 158.204L41.7771 154.717L42.8678 153.15L43.2985 153.449C43.5802 153.644 43.7684 153.755 43.8631 153.781C43.9669 153.804 44.0623 153.794 44.1492 153.75C44.2361 153.706 44.353 153.579 44.4999 153.368L47.1955 149.494L45.9928 148.659L47.0552 147.133C47.4983 147.408 47.9394 147.646 48.3784 147.847C48.8229 148.051 49.2334 148.211 49.61 148.328C49.8557 148.403 50.1775 148.465 50.5756 148.517L51.3476 149.053Z" fill="#FFFEFA"/>
<path d="M57.1844 152.513L56.5778 153.686C57.4763 153.576 58.2033 153.561 58.7588 153.639C59.3201 153.72 59.8477 153.888 60.3416 154.143C60.9119 154.438 61.3522 154.818 61.6626 155.283C61.9789 155.752 62.1427 156.22 62.1541 156.687C62.1685 157.149 62.0039 157.712 61.6603 158.376L59.7628 162.043C59.6017 162.354 59.5189 162.565 59.5144 162.674C59.5158 162.786 59.5529 162.887 59.6257 162.977C59.6811 163.043 59.8851 163.167 60.2379 163.349L60.67 163.572L59.7897 165.273L54.613 162.601L55.4933 160.9C55.8903 161.097 56.1153 161.202 56.1684 161.215C56.3367 161.249 56.4686 161.232 56.5643 161.162C56.66 161.092 56.7884 160.902 56.9496 160.59L58.6236 157.355C58.8395 156.938 58.9352 156.645 58.9109 156.476C58.8762 156.198 58.706 155.979 58.4003 155.822C58.1475 155.691 57.8482 155.607 57.5023 155.57C57.1564 155.533 56.6498 155.562 55.9824 155.657L54.1716 159.156C53.974 159.538 53.8935 159.794 53.9302 159.925C53.9669 160.056 54.1411 160.201 54.4527 160.362L54.7349 160.508L53.8546 162.209L48.7308 159.564L49.6111 157.863L49.8668 157.995C50.2725 158.204 50.5315 158.316 50.6438 158.329C50.762 158.345 50.8674 158.322 50.9601 158.258C51.0586 158.197 51.1747 158.037 51.3085 157.779L53.434 153.671L52.1288 152.997L53.0091 151.296C54.1343 151.713 55.2527 151.978 56.3643 152.09L57.1844 152.513Z" fill="#FFFEFA"/>
<path d="M71.7786 165.278L72.6642 166.988C71.6535 167.606 70.7002 167.986 69.8043 168.127C68.9167 168.264 68.0255 168.193 67.1305 167.912C65.6936 167.462 64.6358 166.598 63.9573 165.32C63.2807 164.035 63.1591 162.703 63.5923 161.323C63.8771 160.416 64.3578 159.656 65.0344 159.045C65.713 158.427 66.5093 158.029 67.4233 157.852C68.3393 157.668 69.2921 157.731 70.2815 158.041C70.9118 158.238 71.4566 158.509 71.916 158.854C72.3755 159.198 72.744 159.601 73.0216 160.062C73.3056 160.524 73.488 161.035 73.5688 161.593C73.658 162.147 73.6656 162.696 73.5916 163.24C73.5483 163.511 73.4386 163.926 73.2626 164.487L66.9003 162.494C66.6617 163.298 66.6911 164.02 66.9886 164.66C67.2944 165.296 67.7781 165.717 68.4399 165.925C68.8622 166.057 69.3618 166.075 69.9388 165.979C70.5178 165.876 71.1311 165.643 71.7786 165.278ZM70.7454 161.954C70.8199 161.563 70.8215 161.238 70.7501 160.98C70.687 160.718 70.5586 160.488 70.365 160.289C70.1797 160.085 69.9609 159.944 69.7089 159.865C69.4442 159.782 69.1681 159.768 68.8808 159.824C68.5935 159.879 68.3386 159.996 68.1161 160.176C67.8999 160.357 67.7144 160.618 67.5595 160.957L70.7454 161.954Z" fill="#FFFEFA"/>
<path d="M82.6563 160.992L83.9383 161.193L84.3031 164.038L82.3364 164.491C82.0733 163.868 81.6995 163.355 81.2148 162.951C80.7376 162.542 80.238 162.297 79.7161 162.215C79.3703 162.161 79.1033 162.179 78.9152 162.27C78.7271 162.36 78.6202 162.487 78.5946 162.651C78.573 162.788 78.6117 162.924 78.7107 163.06C78.8162 163.197 79.0479 163.36 79.4058 163.55L81.9462 164.931C82.3958 165.176 82.8192 165.46 83.2163 165.783C83.6134 166.106 83.8904 166.47 84.0472 166.876C84.2115 167.276 84.2547 167.724 84.1767 168.22C84.0371 169.107 83.5834 169.781 82.8156 170.242C81.9149 170.783 80.8708 170.96 79.6834 170.773C78.6656 170.614 77.8188 170.217 77.143 169.583L76.7843 170.078L75.4827 169.873L74.7839 166.475L76.7568 165.982C77.1061 166.779 77.5872 167.439 78.2 167.963C78.8139 168.481 79.4047 168.784 79.9723 168.873C80.3246 168.929 80.6343 168.894 80.9014 168.768C81.1046 168.667 81.22 168.528 81.2477 168.352C81.2713 168.202 81.2222 168.047 81.1002 167.887C80.9782 167.728 80.6859 167.525 80.2232 167.278L78.2248 166.213C77.1215 165.618 76.3943 165.056 76.0431 164.526C75.6994 163.991 75.5779 163.404 75.6785 162.764C75.8078 161.942 76.2461 161.303 76.9933 160.845C77.8442 160.323 78.821 160.149 79.9236 160.322C80.9023 160.476 81.7058 160.829 82.3341 161.382L82.6563 160.992Z" fill="#FFFEFA"/>
<path d="M92.8907 161.585L94.1885 161.611L94.9358 164.381L93.0484 165.097C92.7032 164.515 92.2631 164.057 91.7281 163.723C91.1997 163.382 90.6714 163.206 90.143 163.195C89.793 163.188 89.5309 163.243 89.3569 163.358C89.1828 163.474 89.0941 163.614 89.0908 163.779C89.088 163.918 89.1448 164.048 89.2613 164.169C89.3844 164.29 89.6362 164.421 90.0166 164.561L92.7214 165.586C93.2001 165.767 93.6581 165.991 94.0955 166.257C94.5328 166.524 94.8567 166.847 95.0671 167.228C95.2842 167.603 95.3877 168.041 95.3777 168.543C95.3597 169.441 95.0015 170.17 94.3032 170.731C93.484 171.389 92.4734 171.705 91.2714 171.681C90.2411 171.661 89.3481 171.382 88.5925 170.845L88.3042 171.384L86.9866 171.358L85.8332 168.084L87.7214 167.329C88.1756 168.072 88.7419 168.661 89.4203 169.098C90.0988 169.527 90.7254 169.748 91.3 169.759C91.6566 169.767 91.9587 169.69 92.2064 169.53C92.394 169.401 92.4895 169.248 92.4931 169.07C92.4962 168.918 92.4264 168.771 92.2839 168.629C92.1414 168.488 91.8242 168.326 91.3323 168.145L89.2074 167.359C88.0335 166.919 87.2367 166.461 86.8168 165.983C86.4036 165.499 86.2035 164.934 86.2165 164.286C86.2331 163.454 86.5807 162.761 87.2591 162.206C88.0315 161.574 88.9758 161.269 90.092 161.292C91.0826 161.311 91.9268 161.553 92.6244 162.016L92.8907 161.585Z" fill="#FFFEFA"/>
<path d="M105.11 155.647C105.603 155.553 106.055 155.649 106.466 155.934C106.882 156.211 107.136 156.596 107.23 157.089C107.325 157.589 107.231 158.047 106.948 158.464C106.669 158.873 106.283 159.125 105.79 159.218C105.297 159.312 104.843 159.22 104.427 158.943C104.016 158.658 103.764 158.269 103.67 157.776C103.577 157.289 103.676 156.837 103.966 156.419C104.255 155.994 104.637 155.737 105.11 155.647ZM107.513 159.688L108.883 166.879C108.948 167.223 109.008 167.43 109.062 167.501C109.116 167.571 109.195 167.62 109.301 167.647C109.413 167.666 109.643 167.642 109.994 167.576L110.519 167.476L110.877 169.354L104.862 170.497L104.505 168.619L105.021 168.521C105.358 168.456 105.569 168.4 105.654 168.35C105.744 168.292 105.803 168.217 105.832 168.124C105.862 168.031 105.852 167.858 105.804 167.605L104.92 162.963L103.48 163.237L103.131 161.407C103.639 161.284 104.118 161.136 104.57 160.963C105.027 160.788 105.43 160.608 105.777 160.421C106.003 160.297 106.273 160.111 106.589 159.863L107.513 159.688Z" fill="#FFFEFA"/>
<path d="M116.301 157.476L117.538 157.085L119.135 159.469L117.577 160.751C117.063 160.31 116.499 160.017 115.885 159.872C115.276 159.718 114.719 159.721 114.215 159.88C113.881 159.986 113.65 160.121 113.523 160.286C113.395 160.451 113.356 160.612 113.406 160.77C113.447 160.902 113.543 161.007 113.692 161.084C113.848 161.16 114.128 161.203 114.533 161.213L117.424 161.318C117.936 161.337 118.441 161.402 118.941 161.514C119.441 161.627 119.851 161.829 120.173 162.123C120.498 162.408 120.737 162.789 120.888 163.268C121.16 164.124 121.054 164.93 120.573 165.684C120.008 166.569 119.152 167.193 118.006 167.555C117.024 167.865 116.089 167.887 115.201 167.62L115.101 168.223L113.844 168.62L111.701 165.889L113.248 164.57C113.916 165.127 114.641 165.504 115.424 165.7C116.205 165.89 116.869 165.899 117.417 165.725C117.757 165.618 118.018 165.449 118.201 165.218C118.338 165.036 118.379 164.86 118.325 164.69C118.28 164.546 118.166 164.429 117.986 164.34C117.806 164.252 117.453 164.201 116.929 164.186L114.665 164.122C113.412 164.082 112.51 163.903 111.959 163.585C111.412 163.259 111.041 162.787 110.846 162.17C110.595 161.377 110.701 160.609 111.166 159.867C111.695 159.021 112.492 158.43 113.556 158.094C114.5 157.795 115.377 157.754 116.187 157.969L116.301 157.476Z" fill="#FFFEFA"/>
<path d="M127.28 147.275L132.964 157.356C133.155 157.695 133.283 157.888 133.348 157.935C133.453 158.027 133.589 158.06 133.756 158.034C133.861 158.02 134.104 157.906 134.483 157.693L134.785 157.523L135.723 159.186L130.386 162.188L129.448 160.525L129.776 160.341C130.121 160.147 130.331 160.003 130.406 159.907C130.478 159.806 130.511 159.697 130.505 159.579C130.496 159.456 130.399 159.23 130.214 158.903L125.88 151.217L124.605 151.935L123.662 150.263C124.652 149.616 125.579 148.776 126.444 147.745L127.28 147.275Z" fill="#FFFEFA"/>
<path d="M131.31 144.579C131.723 144.293 132.174 144.197 132.666 144.291C133.158 144.375 133.548 144.623 133.834 145.036C134.124 145.453 134.225 145.91 134.135 146.406C134.047 146.893 133.797 147.279 133.384 147.565C132.971 147.851 132.519 147.952 132.026 147.867C131.535 147.774 131.146 147.521 130.86 147.109C130.577 146.702 130.483 146.249 130.579 145.749C130.67 145.244 130.914 144.854 131.31 144.579ZM135.15 147.294L139.326 153.307C139.525 153.594 139.664 153.759 139.742 153.802C139.82 153.844 139.912 153.856 140.02 153.838C140.13 153.81 140.331 153.695 140.624 153.492L141.064 153.187L142.155 154.757L137.122 158.244L136.032 156.674L136.463 156.375C136.746 156.179 136.915 156.042 136.972 155.962C137.031 155.873 137.055 155.78 137.044 155.683C137.033 155.586 136.954 155.432 136.807 155.221L134.112 151.339L132.907 152.174L131.844 150.645C132.258 150.326 132.636 149.996 132.978 149.655C133.325 149.309 133.619 148.981 133.861 148.669C134.017 148.465 134.188 148.185 134.376 147.83L135.15 147.294Z" fill="#FFFEFA"/>
<path d="M142.03 142.002L143.392 143.601L142.169 144.64L145.31 148.328C145.563 148.624 145.728 148.792 145.804 148.831C145.912 148.887 146.024 148.9 146.138 148.872C146.253 148.844 146.436 148.723 146.688 148.509L147.111 148.15L148.35 149.605L143.685 153.57L142.445 152.114L142.815 151.8C143.117 151.543 143.288 151.372 143.328 151.286C143.368 151.201 143.37 151.107 143.336 151.006C143.303 150.896 143.156 150.687 142.895 150.381L139.753 146.693L138.636 147.642L137.274 146.043L138.392 145.094L137.724 144.31C137.248 143.752 136.963 143.218 136.868 142.71C136.744 142.095 136.828 141.44 137.118 140.742C137.409 140.044 137.912 139.392 138.626 138.785C139.381 138.143 140.109 137.801 140.811 137.76C141.509 137.713 142.023 137.883 142.352 138.27C142.614 138.577 142.729 138.912 142.7 139.275C142.672 139.628 142.499 139.94 142.182 140.209C142.056 140.316 141.918 140.403 141.767 140.471C141.617 140.529 141.457 140.565 141.287 140.579C141.169 140.593 140.933 140.577 140.581 140.53C140.251 140.489 140.041 140.477 139.951 140.493C139.837 140.512 139.747 140.549 139.682 140.605C139.511 140.75 139.443 140.946 139.48 141.192C139.517 141.429 139.737 141.784 140.139 142.257L140.807 143.041L142.03 142.002Z" fill="#FFFEFA"/>
<path d="M153.544 138.884L155.47 138.801C155.604 139.977 155.547 141.001 155.298 141.872C155.048 142.734 154.607 143.512 153.975 144.205C152.961 145.318 151.73 145.912 150.284 145.99C148.833 146.062 147.572 145.612 146.502 144.639C145.798 143.999 145.312 143.244 145.042 142.373C144.767 141.498 144.742 140.609 144.966 139.706C145.185 138.799 145.644 137.962 146.343 137.196C146.788 136.708 147.264 136.328 147.77 136.057C148.277 135.786 148.798 135.621 149.333 135.563C149.872 135.501 150.413 135.55 150.954 135.712C151.494 135.864 151.996 136.088 152.459 136.384C152.686 136.537 153.016 136.811 153.451 137.207L148.96 142.134C149.589 142.688 150.257 142.965 150.963 142.965C151.669 142.955 152.256 142.694 152.723 142.182C153.021 141.855 153.248 141.41 153.404 140.846C153.555 140.279 153.602 139.625 153.544 138.884ZM150.091 138.422C149.767 138.19 149.473 138.052 149.209 138.008C148.944 137.955 148.681 137.974 148.418 138.066C148.156 138.148 147.935 138.287 147.757 138.482C147.57 138.687 147.442 138.932 147.371 139.215C147.3 139.499 147.299 139.78 147.368 140.057C147.441 140.329 147.599 140.606 147.842 140.889L150.091 138.422Z" fill="#FFFEFA"/>
<path d="M151.753 122.287C152.004 121.852 152.371 121.573 152.855 121.447C153.337 121.313 153.795 121.371 154.23 121.622C154.671 121.876 154.956 122.246 155.087 122.733C155.215 123.211 155.154 123.667 154.903 124.102C154.652 124.536 154.286 124.821 153.804 124.955C153.32 125.08 152.861 125.017 152.426 124.767C151.997 124.52 151.718 124.15 151.591 123.657C151.458 123.161 151.512 122.705 151.753 122.287ZM156.384 123.102L162.728 126.756C163.031 126.931 163.227 127.021 163.315 127.026C163.404 127.032 163.493 127.003 163.582 126.94C163.67 126.868 163.802 126.678 163.981 126.369L164.248 125.906L165.905 126.86L162.844 132.162L161.187 131.208L161.45 130.753C161.621 130.456 161.716 130.259 161.734 130.162C161.749 130.057 161.731 129.963 161.679 129.88C161.628 129.797 161.491 129.691 161.268 129.562L157.173 127.204L156.44 128.474L154.826 127.544C155.064 127.079 155.265 126.619 155.428 126.165C155.595 125.704 155.721 125.281 155.806 124.896C155.859 124.645 155.895 124.319 155.913 123.918L156.384 123.102Z" fill="#FFFEFA"/>
<path d="M156.447 115.714L159.56 117.077L160.842 114.157L162.775 115.003L161.492 117.924L164.65 119.307C165.364 119.62 165.84 119.785 166.077 119.803C166.311 119.811 166.534 119.739 166.745 119.587C167.028 119.386 167.247 119.111 167.401 118.76C167.674 118.137 167.744 117.428 167.609 116.634L169.551 117.485C169.568 118.119 169.534 118.674 169.448 119.148C169.359 119.614 169.205 120.095 168.988 120.591C168.741 121.153 168.452 121.622 168.122 121.996C167.788 122.362 167.424 122.642 167.028 122.836C166.629 123.022 166.255 123.11 165.905 123.102C165.559 123.087 165.104 122.956 164.541 122.71L160.222 120.817L159.625 122.178L157.882 121.415C157.937 120.862 157.896 120.35 157.756 119.878C157.611 119.404 157.378 118.973 157.057 118.588C156.739 118.196 156.279 117.821 155.679 117.465L156.447 115.714Z" fill="#FFFEFA"/>
<path d="M163.221 106.434L163.582 105.187L166.451 105.18L166.654 107.187C166.003 107.37 165.447 107.677 164.985 108.108C164.519 108.53 164.213 108.995 164.066 109.503C163.969 109.839 163.953 110.106 164.02 110.304C164.086 110.502 164.199 110.624 164.357 110.669C164.491 110.708 164.631 110.686 164.778 110.605C164.927 110.518 165.119 110.308 165.352 109.977L167.042 107.629C167.341 107.214 167.676 106.829 168.046 106.476C168.416 106.122 168.813 105.893 169.235 105.788C169.653 105.675 170.103 105.688 170.585 105.827C171.448 106.076 172.06 106.61 172.421 107.429C172.844 108.39 172.889 109.448 172.555 110.602C172.269 111.592 171.768 112.382 171.054 112.974L171.5 113.391L171.134 114.657L167.674 114.926L167.433 112.908C168.267 112.661 168.983 112.266 169.58 111.723C170.171 111.179 170.546 110.631 170.706 110.079C170.805 109.736 170.809 109.425 170.718 109.144C170.643 108.93 170.519 108.798 170.348 108.749C170.202 108.706 170.042 108.736 169.869 108.837C169.695 108.938 169.457 109.203 169.154 109.631L167.846 111.48C167.117 112.501 166.468 113.152 165.898 113.434C165.324 113.708 164.726 113.756 164.104 113.576C163.305 113.345 162.725 112.831 162.365 112.032C161.954 111.123 161.904 110.133 162.214 109.061C162.489 108.109 162.941 107.356 163.569 106.802L163.221 106.434Z" fill="#FFFEFA"/>
<path d="M171.503 95.0456L173.039 93.8826C173.818 94.7736 174.354 95.6485 174.645 96.5072C174.93 97.3585 175.01 98.2488 174.885 99.1783C174.684 100.671 174.011 101.86 172.865 102.745C171.713 103.63 170.42 103.976 168.987 103.783C168.044 103.657 167.214 103.312 166.497 102.749C165.773 102.186 165.247 101.469 164.918 100.598C164.582 99.7266 164.483 98.7771 164.621 97.7495C164.71 97.095 164.885 96.5121 165.147 96.0009C165.409 95.4897 165.743 95.0582 166.151 94.7064C166.559 94.3481 167.031 94.0817 167.568 93.9073C168.099 93.7254 168.639 93.6247 169.188 93.6051C169.461 93.6019 169.89 93.6394 170.472 93.7177L169.582 100.325C170.415 100.424 171.122 100.272 171.703 99.8703C172.278 99.4611 172.611 98.9128 172.704 98.2256C172.763 97.7871 172.696 97.2917 172.504 96.7394C172.305 96.1863 171.972 95.6217 171.503 95.0456ZM168.401 96.628C168.002 96.6211 167.682 96.6746 167.44 96.7887C167.192 96.8954 166.986 97.061 166.823 97.2856C166.654 97.5028 166.552 97.7423 166.516 98.0041C166.479 98.279 166.512 98.5533 166.615 98.827C166.718 99.1008 166.877 99.332 167.092 99.5207C167.307 99.7029 167.595 99.8416 167.955 99.9366L168.401 96.628Z" fill="#FFFEFA"/>
<path d="M160.854 87.0983L172.443 87.2862C172.832 87.2925 173.064 87.2797 173.137 87.2479C173.27 87.2038 173.367 87.103 173.429 86.9455C173.47 86.8471 173.494 86.58 173.501 86.1441L173.507 85.7974L175.419 85.8284L175.319 91.9597L173.407 91.9287L173.414 91.5523C173.42 91.1561 173.401 90.9015 173.357 90.7885C173.306 90.6754 173.228 90.5916 173.123 90.537C173.012 90.4824 172.768 90.452 172.391 90.4459L163.556 90.3027L163.532 91.7686L161.61 91.7375C161.55 90.5542 161.293 89.328 160.838 88.0591L160.854 87.0983Z" fill="#FFFEFA"/>
<path d="M164.974 78.841L167.067 78.6694L167.199 80.2689L172.027 79.8733C172.415 79.8415 172.648 79.8059 172.724 79.7665C172.832 79.7112 172.908 79.6288 172.952 79.5192C172.996 79.4095 173.005 79.1902 172.977 78.8611L172.932 78.3082L174.838 78.152L175.339 84.2537L173.433 84.4098L173.393 83.926C173.361 83.5311 173.322 83.2925 173.275 83.2101C173.229 83.1278 173.154 83.0709 173.052 83.0395C172.943 83.0021 172.688 82.9998 172.286 83.0327L167.458 83.4283L167.578 84.8896L165.485 85.0611L165.365 83.5999L164.338 83.684C163.608 83.7439 163.008 83.6638 162.539 83.4438C161.968 83.1858 161.484 82.7351 161.086 82.0918C160.689 81.4484 160.452 80.6594 160.375 79.7248C160.294 78.7374 160.441 77.9468 160.816 77.3528C161.185 76.7593 161.623 76.4418 162.13 76.4003C162.531 76.3674 162.871 76.4688 163.149 76.7044C163.419 76.9341 163.572 77.2562 163.606 77.6709C163.619 77.8354 163.61 77.9986 163.576 78.1603C163.536 78.316 163.472 78.467 163.385 78.6134C163.327 78.7175 163.177 78.8988 162.933 79.1574C162.708 79.4011 162.575 79.5644 162.536 79.6471C162.485 79.7507 162.462 79.8453 162.469 79.9309C162.488 80.1546 162.608 80.3237 162.829 80.4381C163.044 80.5465 163.46 80.5753 164.079 80.5246L165.106 80.4404L164.974 78.841Z" fill="#FFFEFA"/>
<path d="M55.0754 10.1151L61.3767 7.70534L62.061 9.49063L61.4411 9.72771C61.1573 9.83622 60.9668 9.94799 60.8694 10.063C60.7782 10.1757 60.7296 10.3074 60.7238 10.4581C60.7155 10.6027 60.7859 10.8692 60.9348 11.2577L62.736 15.9568C63.0717 16.8325 63.4086 17.4531 63.7468 17.8188C64.0911 18.182 64.4828 18.4105 64.9219 18.5042C65.3648 18.5894 65.8391 18.5353 66.345 18.3418C66.8508 18.1484 67.2538 17.8529 67.5541 17.4552C67.8543 17.0576 68.0156 16.6388 68.038 16.1989C68.0641 15.7506 67.9094 15.0885 67.5737 14.2128L65.5882 9.03272C65.5054 8.81688 65.4186 8.67332 65.3276 8.60205C65.2063 8.50703 65.0745 8.45843 64.9322 8.45628C64.8317 8.4523 64.6056 8.51755 64.254 8.65201L63.7543 8.84309L63.07 7.0578L68.409 5.01609L69.0933 6.80138L68.6769 6.96061C68.2636 7.11867 68.0171 7.24123 67.9373 7.32831C67.8176 7.45893 67.751 7.60813 67.7375 7.77591C67.7236 7.88729 67.797 8.15265 67.9578 8.57199L69.9079 13.6596C70.2672 14.597 70.4329 15.4351 70.4049 16.1741C70.3596 17.1813 70.0158 18.0835 69.3736 18.8806C68.7352 19.6692 67.8515 20.2794 66.7227 20.7111C65.9269 21.0154 65.1683 21.1676 64.4469 21.1677C63.7232 21.1616 63.0375 21.0244 62.39 20.7558C61.7463 20.4788 61.2319 20.124 60.8468 19.6914C60.4679 19.2565 60.0894 18.5457 59.7112 17.559L57.8 12.5732C57.6251 12.1168 57.4881 11.8333 57.3892 11.7227C57.2878 11.6059 57.1698 11.5379 57.0351 11.5187C56.9004 11.4995 56.6727 11.5512 56.352 11.6739L55.7598 11.9003L55.0754 10.1151Z" fill="#FFFEFA"/>
<path d="M71.8715 4.12627L77.4153 3.22248L82.7147 10.5288L81.9191 5.66C81.8509 5.24286 81.7855 4.98587 81.7229 4.88902C81.6321 4.74322 81.5265 4.65002 81.4061 4.60942C81.2847 4.56231 81.0643 4.56479 80.7449 4.61686L80.08 4.72525L79.7717 2.83833L85.4034 1.92019L85.7118 3.80711L85.086 3.90912C84.7731 3.96013 84.5541 4.03264 84.429 4.12665C84.3103 4.2196 84.235 4.33225 84.2031 4.46459C84.1712 4.59693 84.1888 4.86841 84.2559 5.27904L85.9797 15.8282L83.1736 16.2857L76.4666 7.06082L77.6153 14.0903C77.6813 14.4944 77.7462 14.7482 77.8099 14.8515C77.8802 14.9538 77.9826 15.0275 78.1171 15.0725C78.2581 15.1164 78.485 15.1129 78.7979 15.0619L79.453 14.9551L79.7613 16.842L74.1002 17.7649L73.7919 15.878L74.3785 15.7823C74.7044 15.7292 74.9218 15.667 75.0306 15.5957C75.1449 15.5169 75.2267 15.4032 75.276 15.2546C75.3253 15.106 75.3276 14.8949 75.2829 14.6211L74.0048 6.7997C73.9558 6.49988 73.8875 6.28685 73.8 6.1606C73.7114 6.02783 73.6069 5.94115 73.4865 5.90055C73.365 5.85344 73.1739 5.85114 72.9132 5.89364L72.1799 6.01319L71.8715 4.12627Z" fill="#FFFEFA"/>
<path d="M88.2893 1.97739L95.0248 1.86818L95.0558 3.77987L94.4417 3.78983C94.0851 3.79561 93.848 3.83248 93.7302 3.90044C93.6189 3.9617 93.5346 4.06214 93.4775 4.20178C93.4268 4.3347 93.4045 4.59266 93.4108 4.97566L93.535 12.6224C93.5418 13.0385 93.5693 13.3055 93.6174 13.4236C93.6656 13.5418 93.7462 13.6263 93.8593 13.6773C93.9993 13.7543 94.2079 13.7906 94.4853 13.7861L95.2183 13.7742L95.2493 15.6859L88.5138 15.7951L88.4828 13.8834L89.0275 13.8746C89.4171 13.8682 89.6709 13.8377 89.789 13.783C89.9068 13.7216 89.9912 13.6311 90.0421 13.5113C90.0995 13.3849 90.1253 13.1401 90.1194 12.7769L89.9946 5.10041C89.9876 4.67118 89.9534 4.39102 89.8918 4.25991C89.8367 4.1221 89.7425 4.01794 89.6093 3.94745C89.516 3.89612 89.291 3.87334 88.9345 3.87913L88.3203 3.88908L88.2893 1.97739Z" fill="#FFFEFA"/>
<path d="M105.872 2.64016C108.043 2.96868 109.698 3.89472 110.839 5.41826C111.985 6.9428 112.401 8.74136 112.087 10.8139C111.876 12.2065 111.381 13.3957 110.603 14.3815C109.824 15.3673 108.848 16.0723 107.673 16.4964C106.506 16.915 105.158 17.0086 103.628 16.777C101.607 16.4713 100.037 15.6652 98.9177 14.3588C97.5649 12.783 97.0586 10.8738 97.3988 8.6312C97.7151 6.54555 98.654 4.94201 100.215 3.8206C101.783 2.70017 103.669 2.3067 105.872 2.64016ZM105.581 4.82329C104.542 4.66595 103.656 4.9298 102.923 5.61482C102.003 6.47877 101.425 7.68551 101.19 9.23504C100.955 10.7846 101.128 12.0649 101.711 13.076C102.215 13.9415 102.977 14.4514 103.997 14.6058C105.024 14.7611 105.903 14.4996 106.634 13.8211C107.5 13.0091 108.05 11.8315 108.284 10.2886C108.448 9.20323 108.43 8.26742 108.228 7.48112C108.033 6.6958 107.698 6.08 107.224 5.63372C106.75 5.18744 106.202 4.91729 105.581 4.82329Z" fill="#FFFEFA"/>
<path d="M116.993 5.3059L122.218 7.32595L123.08 16.2814L124.858 11.694C125.011 11.3009 125.084 11.047 125.079 10.9321C125.075 10.761 125.031 10.6276 124.948 10.5319C124.868 10.4301 124.677 10.3211 124.376 10.2047L123.749 9.96241L124.438 8.18457L129.746 10.2367L129.057 12.0145L128.467 11.7865C128.172 11.6725 127.947 11.6243 127.792 11.642C127.643 11.6621 127.521 11.7209 127.427 11.8186C127.333 11.9163 127.21 12.1586 127.061 12.5455L123.209 22.4848L120.564 21.4623L119.461 10.1473L116.894 16.7704C116.746 17.1512 116.674 17.4021 116.677 17.5231C116.685 17.6465 116.736 17.7614 116.829 17.868C116.928 17.9769 117.125 18.0884 117.42 18.2024L118.037 18.4411L117.348 20.2189L112.013 18.1561L112.702 16.3783L113.255 16.592C113.562 16.7108 113.78 16.767 113.91 16.7606C114.048 16.7504 114.176 16.694 114.294 16.5911C114.411 16.4883 114.52 16.3079 114.62 16.05L117.476 8.68069C117.585 8.3982 117.634 8.1806 117.623 8.02789C117.614 7.86903 117.568 7.74178 117.485 7.64613C117.404 7.54434 117.241 7.44595 116.995 7.35094L116.304 7.08374L116.993 5.3059Z" fill="#FFFEFA"/>
<path d="M43.9375 41.0645V104.453C44.2297 130.165 65.5893 150.956 91.9156 150.956C118.242 150.956 139.593 130.189 139.878 104.477V41.0645H43.9375ZM136.688 103.942C136.428 128.122 116.505 147.649 91.9481 147.649C67.3909 147.649 47.4596 128.106 47.1999 103.942V44.3149H136.688V103.942Z" fill="#FFFEFA"/>
<path d="M93.6043 137.776H90.2852V148.128H93.6043V137.776Z" fill="#FFFEFA"/>
<path d="M69.9702 119.335H49.9414V122.586H69.9702V119.335Z" fill="#FFFEFA"/>
<path d="M62.9427 121.994H59.6641V126.89H62.9427V121.994Z" fill="#FFFEFA"/>
<path d="M133.751 119.327H113.512V122.586H133.751V119.327Z" fill="#FFFEFA"/>
<path d="M123.631 122.359H120.336V126.89H123.631V122.359Z" fill="#FFFEFA"/>
<path d="M60.7773 135.604L74.1434 128.592L75.9856 131.308L63.4392 137.898L60.7773 135.604Z" fill="#FFFEFA"/>
<path d="M81.0953 135.45L78.9609 139.114L81.7526 140.743L84.0899 136.812L81.0953 135.45Z" fill="#FFFEFA"/>
<path d="M99.7969 136.706L102.15 140.751L104.974 139.105L102.743 135.288L99.7969 136.706Z" fill="#FFFEFA"/>
<path d="M108.18 131.462L120.491 137.946L122.917 135.555L110.273 128.892L108.18 131.462Z" fill="#FFFEFA"/>
<path d="M101.864 101.51L100.168 104.356C102.323 106.032 103.906 108.334 104.696 110.946C105.487 113.558 105.447 116.35 104.583 118.938C103.718 121.527 102.07 123.783 99.8678 125.397C97.6652 127.011 95.0155 127.903 92.2842 127.95C89.5528 127.996 86.8741 127.196 84.6174 125.658C82.3607 124.121 80.6369 121.922 79.6839 119.365C78.7308 116.807 78.5952 114.018 79.2958 111.381C79.9965 108.743 81.4989 106.388 83.5959 104.639L81.8187 101.819C79.1155 103.948 77.1483 106.87 76.1933 110.174C75.2384 113.478 75.3436 116.997 76.4944 120.238C77.6451 123.479 79.7835 126.279 82.609 128.243C85.4346 130.208 88.8054 131.239 92.2478 131.192C95.6903 131.144 99.0314 130.021 101.802 127.979C104.572 125.938 106.633 123.081 107.693 119.809C108.754 116.538 108.763 113.017 107.717 109.74C106.671 106.464 104.624 103.597 101.864 101.543V101.51Z" fill="#FFFEFA"/>
<path d="M107.068 96.7686L104.374 98.8032C107.699 101.39 110.132 104.95 111.333 108.985C112.535 113.02 112.444 117.329 111.075 121.311C109.706 125.292 107.126 128.747 103.695 131.193C100.265 133.639 96.1556 134.953 91.9409 134.953C87.7262 134.953 83.6167 133.639 80.1864 131.193C76.756 128.747 74.176 125.292 72.8067 121.311C71.4375 117.329 71.3472 113.02 72.5487 108.985C73.7501 104.95 76.1832 101.39 79.5081 98.8032L77.1384 96.5173C73.3729 99.5669 70.642 103.704 69.3191 108.362C67.9961 113.02 68.1457 117.973 69.7473 122.543C71.349 127.113 74.3245 131.078 78.2673 133.895C82.2101 136.713 86.9277 138.245 91.7753 138.283C96.623 138.321 101.364 136.863 105.351 134.108C109.337 131.353 112.375 127.436 114.048 122.891C115.722 118.347 115.949 113.397 114.7 108.718C113.45 104.04 110.785 99.8607 107.068 96.7524V96.7686Z" fill="#FFFEFA"/>
<path d="M90.4129 127.919L90.3561 97.3682L87.8972 99.954L85.5437 97.6925L90.3724 92.6587L90.3237 58.93L83.0117 49.3731L85.5843 47.3953L91.9549 55.72L98.3417 47.4034L100.922 49.365L93.5698 58.9381L93.6104 92.5858L98.5202 97.6925L96.1911 99.9378L93.6266 97.2791L93.6591 128.13L90.4129 127.919Z" fill="#FFFEFA"/>
<path d="M83.4107 124.791V110.905C83.4413 110.121 83.4223 109.336 83.3539 108.555C83.2322 107.355 82.4855 105.223 80.335 102.07C78.9822 99.9778 76.99 98.3774 74.6542 97.5062C73.3726 97.0359 72.0568 96.6646 70.7182 96.3957L65.4027 102.321L62.9681 100.141L66.4982 96.2336C66.4982 96.2336 65.0618 96.3146 64.4532 96.3795C63.8445 96.4443 62.1971 96.574 61.4748 96.6632L59.1376 96.9226L56.6381 97.2549L56.1836 94.0126C56.1836 94.0126 58.3423 93.7532 60.5902 93.51C62.8382 93.2668 64.3314 93.0804 66.5064 93.0155C68.6856 92.8936 70.8712 93.0792 72.9987 93.5667C75.279 94.0989 77.4219 95.1042 79.2881 96.5173C81.2241 97.9538 82.8314 99.7859 84.0031 101.892C85.0675 103.389 85.8511 105.067 86.316 106.844C86.5661 108.638 86.6692 110.449 86.6244 112.259V127.903L83.4918 126.59L83.4107 124.791Z" fill="#FFFEFA"/>
<path d="M100.542 125.261V110.719C100.43 109.188 100.623 107.651 101.11 106.196C101.831 104.215 102.934 102.394 104.357 100.838C105.865 99.3896 107.629 98.2327 109.559 97.425C110.603 96.9922 111.691 96.6742 112.805 96.4766L119.614 102.41L121.797 99.9784L117.422 96.1443C118.803 96.1209 120.183 96.1968 121.553 96.3713C124.799 96.6793 128.175 97.2791 128.175 97.2791L128.8 94.0368C128.8 94.0368 125.351 93.4207 122.089 93.1208C119.721 92.8497 117.336 92.7711 114.955 92.8857C112.517 93.023 110.121 93.5882 107.879 94.5555C105.521 95.6161 103.391 97.1217 101.606 98.9895C100.117 100.714 98.9538 102.694 98.1727 104.834C97.6631 106.355 97.3734 107.941 97.3125 109.543V127.206L99.9662 126.29L100.542 125.261Z" fill="#FFFEFA"/>
<path d="M53.0273 86.709L53.3925 89.9514C53.3925 89.9514 58.7406 89.4407 62.2383 89.1976C65.2236 88.9022 68.228 88.848 71.222 89.0354C73.5856 89.2694 75.9077 89.8145 78.1282 90.6566C79.0204 91.0091 79.8879 91.4207 80.7251 91.8887C81.3447 92.3605 82.0783 92.6597 82.8514 92.7561C83.6629 92.7561 84.4744 92.5291 84.7422 91.8887C85.0635 90.9766 85.1555 89.9995 85.0101 89.0435C84.8532 87.7202 84.5817 86.4129 84.1985 85.1365C83.9229 84.2817 83.581 83.4497 83.176 82.648C82.7783 81.8941 81.6178 80.2162 81.3257 79.7298C80.857 79.034 80.3419 78.3705 79.7837 77.7439L77.3491 79.9001C77.5065 80.066 77.6529 80.242 77.7874 80.427C77.9984 80.7188 78.1526 80.9052 78.5989 81.4969C79.0452 82.0887 79.6052 82.9722 79.9379 83.5477C80.3235 84.1794 80.6521 84.844 80.9199 85.5337C81.1415 86.1337 81.2966 86.7562 81.3825 87.3899C81.4511 87.7559 81.4757 88.1287 81.4555 88.5004C81.3987 88.5815 80.9443 88.3221 80.3275 88.0546C79.7107 87.7871 78.3717 87.244 77.7224 87.0657C77.0732 86.8874 75.9776 86.5631 75.2878 86.4172C74.598 86.2713 73.4781 86.0606 72.7153 85.9552C71.9524 85.8498 70.3861 85.7039 69.7288 85.6796C69.0714 85.6553 67.7973 85.6796 67.0183 85.6796C66.2392 85.6796 65.2816 85.7525 64.5836 85.7931C63.8857 85.8336 62.6359 85.8984 61.8974 85.9471L59.0895 86.1659L55.7216 86.474L53.0273 86.709Z" fill="#FFFEFA"/>
<path d="M104.533 77.679C103.817 78.2909 103.165 78.9725 102.585 79.7135C101.585 81.0921 100.767 82.5932 100.15 84.1799C99.6196 85.477 99.2094 86.8202 98.925 88.1923C98.611 89.3518 98.7533 90.5874 99.3226 91.6455C99.5223 91.9237 99.7914 92.145 100.103 92.2872C100.415 92.4294 100.759 92.4876 101.1 92.456C102.246 92.4103 103.362 92.0787 104.346 91.4914C105.923 90.5464 107.64 89.8595 109.434 89.4569C111.312 88.9538 113.244 88.6815 115.188 88.6463C117.972 88.5976 120.057 88.7111 121.965 88.857C123.872 89.0029 126.517 89.2461 127.946 89.4244C129.374 89.6028 130.624 89.8135 130.624 89.8135L131.127 86.5711C131.127 86.5711 128.124 86.1334 125.6 85.8984C123.076 85.6633 120.082 85.3634 117.671 85.3796C115.051 85.3227 112.431 85.5209 109.848 85.9713C107.521 86.5257 105.25 87.2937 103.064 88.2653C102.845 88.3058 102.796 88.3301 102.642 88.2653C102.488 88.2004 102.471 87.4547 102.577 87.1386C102.885 85.8993 103.36 84.7076 103.989 83.5963C104.518 82.6175 105.152 81.6988 105.88 80.8565C106.127 80.5644 106.399 80.2932 106.691 80.0459L104.533 77.679Z" fill="#FFFEFA"/>
<path d="M90.3721 88.0463C90.3721 88.0463 89.869 81.6913 88.7491 79.3C87.4019 76.3981 82.0133 71.2914 82.0133 71.2914L69.3695 71.8101L64.1351 81.4319L61.2623 79.8836L65.5878 71.9642L59.485 72.183L59.3633 68.9406L78.9863 68.2192L68.063 57.6815L70.2947 55.2498L79.879 64.4986L81.1044 58.7434L84.245 59.3919L82.622 67.2546C82.622 67.2546 86.1035 70.805 87.6454 72.5235C89.4713 74.558 90.7941 76.3332 90.7941 76.3332L90.3721 88.0463Z" fill="#FFFEFA"/>
<path d="M93.611 87.9006C93.8236 85.2581 94.4223 82.661 95.3883 80.1918C97.2792 75.7417 102.376 71.1375 102.376 71.1375L115.466 71.786L120.668 81.4077L123.541 79.8595L119.239 71.94L124.88 72.1913L125.042 68.9489L105.46 68.0816L112.155 61.7428L116.561 57.6898L114.378 55.2581L109.509 59.7568L104.396 64.4907L103.252 58.7436L100.071 59.3921L101.621 67.2305L97.1007 71.9238C95.5591 73.55 94.1986 75.3384 93.043 77.2575L93.611 87.9006Z" fill="#FFFEFA"/>
<path d="M127.25 23.0128C136.582 28.0158 144.73 34.9623 151.143 43.3824C157.555 51.8024 162.082 61.4998 164.418 71.8186L167.916 71.008C165.465 60.2053 160.718 50.055 153.998 41.2443C147.277 32.4336 138.739 25.1684 128.962 19.9407L127.25 23.0128Z" fill="#FFFEFA"/>
<path d="M20.2407 72.1588C22.5127 61.897 26.9505 52.2375 33.2579 43.8253C39.5653 35.4132 47.597 28.442 56.8167 23.3774L55.2829 20.4512C45.6686 25.7557 37.295 33.0435 30.7185 41.8303C24.1421 50.6171 19.5136 60.7015 17.1406 71.4131L20.2407 72.1588Z" fill="#FFFEFA"/>
<path d="M129.457 18.5059C139.43 23.8509 148.131 31.281 154.969 40.2896C161.806 49.2982 166.618 59.6734 169.076 70.708L172.712 69.8974C170.091 58.3833 165.023 47.5664 157.851 38.1794C150.68 28.7924 141.572 21.0547 131.145 15.4905L129.457 18.5059Z" fill="#FFFEFA"/>
<path d="M15.5182 71.0806C17.8991 60.149 22.5882 49.8507 29.2721 40.8737C35.956 31.8967 44.4809 24.4478 54.2772 19.0244L52.6541 15.9685C42.4119 21.6133 33.4894 29.3703 26.4793 38.7242C19.4693 48.0782 14.5322 58.815 11.9961 70.2214L15.5182 71.0806Z" fill="#FFFEFA"/>
</g>
<defs>
<clipPath id="clip0_1606_3226">
<rect width="184" height="180" fill="white"/>
</clipPath>
</defs>
</svg>
