<?xml version="1.0" encoding="UTF-8"?>
<svg xmlns="http://www.w3.org/2000/svg" xmlns:xlink="http://www.w3.org/1999/xlink" viewBox="0 0 100 100" width="100px" height="100px">
<g id="surface258799513">
<path style=" stroke:none;fill-rule:nonzero;fill:rgb(100%,100%,100%);fill-opacity:1;" d="M 50 16 C 68.777344 16 84 31.222656 84 50 C 84 68.777344 68.777344 84 50 84 C 31.222656 84 16 68.777344 16 50 C 16 31.222656 31.222656 16 50 16 Z M 61.726562 63.859375 C 62.351562 61.941406 65.285156 42.816406 65.644531 39.050781 C 65.753906 37.90625 65.390625 37.148438 64.6875 36.8125 C 63.835938 36.402344 62.566406 36.605469 61.101562 37.136719 C 59.085938 37.863281 33.347656 48.789062 31.859375 49.425781 C 30.453125 50.023438 29.117188 50.675781 29.117188 51.625 C 29.117188 52.289062 29.511719 52.664062 30.601562 53.050781 C 31.730469 53.457031 34.585938 54.320312 36.269531 54.785156 C 37.890625 55.230469 39.734375 54.84375 40.769531 54.199219 C 41.867188 53.519531 54.527344 45.046875 55.433594 44.304688 C 56.34375 43.5625 57.066406 44.515625 56.324219 45.257812 C 55.582031 46 46.894531 54.433594 45.746094 55.601562 C 44.355469 57.019531 45.34375 58.488281 46.277344 59.078125 C 47.34375 59.75 55.007812 64.890625 56.160156 65.714844 C 57.316406 66.539062 58.484375 66.914062 59.558594 66.914062 C 60.632812 66.910156 61.195312 65.496094 61.726562 63.859375 Z M 61.726562 63.859375 "/>
</g>
</svg>
