<?xml version="1.0" encoding="UTF-8"?>
<svg xmlns="http://www.w3.org/2000/svg" xmlns:xlink="http://www.w3.org/1999/xlink" width="180px" height="180px" viewBox="0 0 180 180" version="1.1">
<g id="surface1">
<path style=" stroke:none;fill-rule:nonzero;fill:rgb(0%,0%,0%);fill-opacity:1;" d="M 15 172.5 L 15 161.25 L 22.5 161.25 C 26.5 161.25 30.34375 160.59375 34.03125 159.28125 C 37.71875 157.96875 41.375 155.5625 45 152.0625 C 48.625 155.5625 52.28125 157.96875 55.96875 159.28125 C 59.65625 160.59375 63.5 161.25 67.5 161.25 C 71.375 161.25 75.25 160.5625 79.125 159.1875 C 83 157.8125 86.625 155.4375 90 152.0625 C 93.625 155.5625 97.28125 157.96875 100.96875 159.28125 C 104.65625 160.59375 108.5 161.25 112.5 161.25 C 116.375 161.25 120.25 160.5625 124.125 159.1875 C 128 157.8125 131.625 155.4375 135 152.0625 C 138.375 155.4375 142 157.8125 145.875 159.1875 C 149.75 160.5625 153.625 161.25 157.5 161.25 L 165 161.25 L 165 172.5 L 157.5 172.5 C 153.875 172.5 150.15625 171.96875 146.34375 170.90625 C 142.53125 169.84375 138.75 167.875 135 165 C 131.25 167.875 127.46875 169.84375 123.65625 170.90625 C 119.84375 171.96875 116.125 172.5 112.5 172.5 C 108.875 172.5 105.15625 171.96875 101.34375 170.90625 C 97.53125 169.84375 93.75 167.875 90 165 C 86.25 167.875 82.46875 169.84375 78.65625 170.90625 C 74.84375 171.96875 71.125 172.5 67.5 172.5 C 63.875 172.5 60.15625 171.96875 56.34375 170.90625 C 52.53125 169.84375 48.75 167.875 45 165 C 41.25 167.875 37.46875 169.84375 33.65625 170.90625 C 29.84375 171.96875 26.125 172.5 22.5 172.5 Z M 64.125 30.75 L 105 38.25 C 106.375 38.5 107.78125 39.09375 109.21875 40.03125 C 110.65625 40.96875 111.875 42.3125 112.875 44.0625 L 119.4375 55.6875 C 122.6875 61.4375 127.15625 66.125 132.84375 69.75 C 138.53125 73.375 144.875 75.3125 151.875 75.5625 L 151.875 86.8125 C 142.875 86.4375 134.59375 83.78125 127.03125 78.84375 C 119.46875 73.90625 113.375 67.5 108.75 59.625 C 108.25 60 107.125 60.78125 105.375 61.96875 C 103.625 63.15625 101.65625 64.46875 99.46875 65.90625 C 97.28125 67.34375 95.125 68.78125 93 70.21875 C 90.875 71.65625 89.25 72.75 88.125 73.5 C 89.5 74.5 91.59375 76.09375 94.40625 78.28125 C 97.21875 80.46875 100.15625 82.78125 103.21875 85.21875 C 106.28125 87.65625 109.21875 90 112.03125 92.25 L 118.125 97.125 L 118.125 127.3125 C 120.25 128.8125 122.25 130.28125 124.125 131.71875 C 126 133.15625 127.9375 134.6875 129.9375 136.3125 C 127.4375 138.3125 124.71875 139.96875 121.78125 141.28125 C 118.84375 142.59375 115.75 143.25 112.5 143.25 C 108.25 143.25 104.1875 142.125 100.3125 139.875 C 96.4375 137.625 93 134.6875 90 131.0625 C 87 134.6875 83.5625 137.625 79.6875 139.875 C 75.8125 142.125 71.75 143.25 67.5 143.25 L 66.65625 143.25 C 66.34375 143.25 66.0625 143.1875 65.8125 143.0625 C 52.9375 134.0625 42.8125 125.84375 35.4375 118.40625 C 28.0625 110.96875 24.375 104.6875 24.375 99.5625 C 24.375 96.4375 25.6875 94.375 28.3125 93.375 C 30.9375 92.375 33.625 91.875 36.375 91.875 C 40 91.875 44.34375 92.5 49.40625 93.75 C 54.46875 95 60.1875 96.75 66.5625 99 L 62.4375 73.3125 C 61.9375 70.4375 62.0625 67.8125 62.8125 65.4375 C 63.5625 63.0625 65 61.1875 67.125 59.8125 L 87 46.5 C 86.125 46.375 84.75 46.125 82.875 45.75 C 81 45.375 79 45 76.875 44.625 C 74.75 44.25 72.75 43.84375 70.875 43.40625 C 69 42.96875 67.625 42.6875 66.75 42.5625 L 46.5 56.4375 L 40.125 47.25 Z M 75.75 83.0625 L 78.9375 104.4375 C 83.6875 106.6875 88.40625 109.09375 93.09375 111.65625 C 97.78125 114.21875 102.375 116.875 106.875 119.625 L 106.875 104.625 C 106 104 104.125 102.6875 101.25 100.6875 C 98.375 98.6875 95.25 96.5 91.875 94.125 C 88.5 91.75 85.25 89.5 82.125 87.375 C 79 85.25 76.875 83.8125 75.75 83.0625 Z M 127.5 38.625 C 123.75 38.625 120.53125 37.28125 117.84375 34.59375 C 115.15625 31.90625 113.8125 28.6875 113.8125 24.9375 C 113.8125 21.1875 115.15625 17.96875 117.84375 15.28125 C 120.53125 12.59375 123.75 11.25 127.5 11.25 C 131.25 11.25 134.46875 12.59375 137.15625 15.28125 C 139.84375 17.96875 141.1875 21.1875 141.1875 24.9375 C 141.1875 28.6875 139.84375 31.90625 137.15625 34.59375 C 134.46875 37.28125 131.25 38.625 127.5 38.625 Z M 127.5 38.625 "/>
</g>
</svg>
